<svg width="44.000000" height="44.000000" viewBox="0 0 44 44" fill="none" xmlns="http://www.w3.org/2000/svg" xmlns:xlink="http://www.w3.org/1999/xlink">
	<desc>
			Created with Pixso.
	</desc>
	<defs>
		<clipPath id="clip39_4561">
			<rect id="github 1" rx="0.000000" width="19.000000" height="19.000000" transform="translate(12.500000 12.500000)" fill="white" fill-opacity="0"/>
		</clipPath>
		<clipPath id="clip39_4560">
			<rect id="Frame 11" rx="5.500000" width="43.000000" height="43.000000" transform="translate(0.500000 0.500000)" fill="white" fill-opacity="0"/>
		</clipPath>
	</defs>
	<rect id="Frame 11" rx="5.500000" width="43.000000" height="43.000000" transform="translate(0.500000 0.500000)" fill="#FFFFFF" fill-opacity="0.250000"/>
	<g clip-path="url(#clip39_4560)">
		<rect id="github 1" rx="0.000000" width="19.000000" height="19.000000" transform="translate(12.500000 12.500000)" fill="#FFFFFF" fill-opacity="0"/>
		<g clip-path="url(#clip39_4561)">
			<path id="Vector" d="M22 13.25C17.16 13.25 13.25 17.16 13.25 21.99C13.25 25.85 15.75 29.12 19.23 30.28C19.67 30.36 19.83 30.09 19.83 29.86C19.83 29.65 19.82 29.1 19.81 28.37C17.38 28.9 16.87 27.2 16.87 27.2C16.47 26.19 15.89 25.92 15.89 25.92C15.1 25.38 15.96 25.39 15.96 25.39C16.83 25.45 17.3 26.29 17.3 26.29C18.08 27.63 19.34 27.24 19.84 27.02C19.92 26.45 20.15 26.07 20.4 25.85C18.45 25.63 16.41 24.88 16.41 21.53C16.41 20.58 16.75 19.79 17.31 19.18C17.22 18.96 16.92 18.07 17.4 16.87C17.4 16.87 18.13 16.64 19.81 17.77C20.52 17.57 21.26 17.47 22 17.47C22.74 17.48 23.49 17.57 24.19 17.77C25.86 16.64 26.59 16.87 26.59 16.87C27.07 18.07 26.77 18.96 26.68 19.18C27.24 19.79 27.58 20.58 27.58 21.53C27.58 24.89 25.53 25.63 23.58 25.84C23.89 26.11 24.17 26.65 24.17 27.46C24.17 28.63 24.16 29.57 24.16 29.86C24.16 30.09 24.32 30.36 24.77 30.28C26.51 29.7 28.02 28.59 29.09 27.1C30.17 25.61 30.74 23.82 30.75 21.99C30.74 19.67 29.82 17.44 28.18 15.8C26.54 14.16 24.31 13.24 22 13.25Z" fill="#FFFFFF" fill-opacity="1.000000" fill-rule="evenodd"/>
		</g>
	</g>
</svg>
