
<svg width="32" height="32" viewBox="0 0 32 32" fill="none" xmlns="http://www.w3.org/2000/svg">
<path fill-rule="evenodd" clip-rule="evenodd" d="M16 5.5C10.1995 5.5 5.5 10.195 5.5 15.9895C5.5 20.6245 8.509 24.5545 12.6805 25.942C13.2055 26.038 13.3975 25.714 13.3975 25.4365C13.3975 25.1875 13.3885 24.5275 13.3825 23.6515C10.462 24.286 9.847 22.246 9.847 22.246C9.3685 21.034 8.68 20.7115 8.68 20.7115C7.7275 20.0605 8.752 20.074 8.752 20.074C9.8065 20.149 10.3615 21.154 10.3615 21.154C11.2975 22.759 12.8185 22.294 13.417 22.027C13.5115 21.349 13.783 20.887 14.083 20.6245C11.752 20.3605 9.301 19.4605 9.301 15.4405C9.301 14.296 9.7105 13.3585 10.381 12.6265C10.273 12.361 9.913 11.2945 10.486 9.8515C10.486 9.8515 11.365 9.568 13.372 10.9255C14.2286 10.6921 15.1122 10.5731 16 10.5715C16.8925 10.576 17.791 10.6915 18.6295 10.9255C20.6335 9.568 21.514 9.85 21.514 9.85C22.087 11.2945 21.727 12.361 21.619 12.625C22.291 13.36 22.699 14.296 22.699 15.4405C22.699 19.4695 20.242 20.3575 17.9035 20.6155C18.28 20.9395 18.616 21.58 18.616 22.5595C18.616 23.9605 18.6025 25.0915 18.6025 25.4365C18.6025 25.717 18.793 26.0425 19.3255 25.9405C21.4141 25.2441 23.2307 23.9084 24.5183 22.1226C25.8058 20.3367 26.4991 18.1911 26.5 15.9895C26.4984 13.2062 25.3913 10.5375 23.4222 8.57035C21.4531 6.60323 18.7833 5.49881 16 5.5Z" fill="white"/>
</svg>
