<svg width="16.500000" height="16.499985" viewBox="0 0 16.5 16.5" fill="none" xmlns="http://www.w3.org/2000/svg" xmlns:xlink="http://www.w3.org/1999/xlink">
	<desc>
			Created with Pixso.
	</desc>
	<defs/>
	<path id="Vector" d="M0.84 1.2C0.92 1.04 1.04 0.92 1.2 0.84C1.38 0.75 1.61 0.75 2.08 0.75L14.41 0.75C14.88 0.75 15.11 0.75 15.29 0.84C15.45 0.92 15.57 1.04 15.65 1.2C15.75 1.38 15.75 1.61 15.75 2.08L15.75 3.53C15.75 3.73 15.75 3.83 15.72 3.93C15.7 4.01 15.67 4.09 15.62 4.17C15.57 4.25 15.5 4.32 15.35 4.47L10.3 9.52C10.16 9.67 10.09 9.74 10.03 9.82C9.99 9.9 9.95 9.98 9.93 10.06C9.91 10.16 9.91 10.26 9.91 10.46L9.91 12.41L6.58 15.75L6.58 10.46C6.58 10.26 6.58 10.16 6.56 10.06C6.54 9.98 6.5 9.9 6.46 9.82C6.4 9.74 6.33 9.67 6.19 9.52L1.14 4.47C0.99 4.32 0.92 4.25 0.87 4.17C0.82 4.09 0.79 4.01 0.77 3.93C0.75 3.83 0.75 3.73 0.75 3.53L0.75 2.08C0.75 1.61 0.75 1.38 0.84 1.2Z" stroke="#FFFFFF" stroke-opacity="1.000000" stroke-width="1.500000" stroke-linejoin="round"/>
</svg>
