<svg width="64.000000" height="64.000000" viewBox="0 0 64 64" fill="none" xmlns="http://www.w3.org/2000/svg" xmlns:xlink="http://www.w3.org/1999/xlink">
	<desc>
			Created with Pixso.
	</desc>
	<defs>
		<clipPath id="clip52_45">
			<rect rx="0.000000" width="63.000000" height="63.000000" transform="translate(0.500000 0.500000)" fill="white" fill-opacity="0"/>
		</clipPath>
	</defs>
	<rect rx="0.000000" width="63.000000" height="63.000000" transform="translate(0.500000 0.500000)" fill="#FFFFFF" fill-opacity="0"/>
	<g clip-path="url(#clip52_45)">
		<path d="M18 27.4C19.86 19.93 24.53 16.2 32 16.2C43.2 16.2 44.6 24.6 50.2 26C53.93 26.93 57.2 25.53 60 21.8C58.13 29.26 53.46 33 46 33C34.8 33 33.39 24.6 27.8 23.2C24.06 22.26 20.8 23.66 18 27.4ZM4 44.2C5.86 36.73 10.53 33 18 33C29.2 33 30.6 41.4 36.2 42.8C39.93 43.73 43.2 42.33 46 38.59C44.13 46.06 39.46 49.8 32 49.8C20.8 49.8 19.39 41.4 13.8 40C10.06 39.06 6.8 40.46 4 44.2Z" fill="#44A8B3" fill-opacity="1.000000" fill-rule="nonzero"/>
	</g>
</svg>
