<svg width="64.000000" height="64.000000" viewBox="0 0 64 64" fill="none" xmlns="http://www.w3.org/2000/svg" xmlns:xlink="http://www.w3.org/1999/xlink">
	<desc>
			Created with Pixso.
	</desc>
	<defs>
		<clipPath id="clip52_26">
			<rect rx="0.000000" width="63.000000" height="63.000000" transform="translate(0.500000 0.500000)" fill="white" fill-opacity="0"/>
		</clipPath>
	</defs>
	<rect rx="0.000000" width="63.000000" height="63.000000" transform="translate(0.500000 0.500000)" fill="#FFFFFF" fill-opacity="0"/>
	<g clip-path="url(#clip52_26)">
		<path d="M4 4L60 4L60 60L4 60L4 4Z" fill="#FFCA28" fill-opacity="1.000000" fill-rule="evenodd"/>
		<path d="M38 50.57L42.12 47.84C42.44 48.86 44.49 51.27 47.07 51.27C49.66 51.27 50.86 49.86 50.86 48.92C50.86 46.37 48.22 45.47 46.95 45.04C46.74 44.97 46.57 44.91 46.46 44.86C46.4 44.83 46.31 44.8 46.19 44.76C44.78 44.22 39.58 42.23 39.58 36.47C39.58 30.13 45.7 29.4 47.09 29.4C47.99 29.4 52.35 29.51 54.52 33.58L50.52 36.37C49.64 34.6 48.18 34.01 47.29 34.01C45.07 34.01 44.61 35.64 44.61 36.37C44.61 38.45 47.02 39.38 49.05 40.16C49.58 40.37 50.09 40.56 50.52 40.77C52.73 41.82 56 43.53 56 48.92C56 51.62 53.73 56 48.03 56C40.36 56 38.33 51.4 38 50.57Z" fill="#3E3E3E" fill-opacity="1.000000" fill-rule="nonzero"/>
		<path d="M18 51.11L22.29 48.39C22.63 49.4 23.94 51.27 25.84 51.27C27.73 51.27 28.71 49.32 28.71 48.39L28.71 30L33.99 30L33.99 48.39C34.08 50.92 32.67 56 26.46 56C20.75 56 18.38 52.6 18 51.11Z" fill="#3E3E3E" fill-opacity="1.000000" fill-rule="nonzero"/>
	</g>
</svg>
