<svg width="64.000000" height="64.000000" viewBox="0 0 64 64" fill="none" xmlns="http://www.w3.org/2000/svg" xmlns:xlink="http://www.w3.org/1999/xlink">
	<desc>
			Created with Pixso.
	</desc>
	<defs>
		<clipPath id="clip52_14">
			<rect rx="0.000000" width="63.000000" height="63.000000" transform="translate(0.500000 0.500000)" fill="white" fill-opacity="0"/>
		</clipPath>
	</defs>
	<rect rx="0.000000" width="63.000000" height="63.000000" transform="translate(0.500000 0.500000)" fill="#FFFFFF" fill-opacity="0"/>
	<g clip-path="url(#clip52_14)">
		<path d="M12 56L8 6L56 6L52 56L32 62L12 56Z" fill="#E44D26" fill-opacity="1.000000" fill-rule="nonzero"/>
		<path d="M52 10L32 10L32 59L48 54L52 10Z" fill="#F16529" fill-opacity="1.000000" fill-rule="nonzero"/>
		<path d="M19 35L17 16L48 16L47 22L23 22L24 29L46 29L44 48L32 52L20 48L19 38L25 38L26 43L32 45L38 43L39 35L19 35Z" fill="#FFFFFF" fill-opacity="1.000000" fill-rule="nonzero"/>
	</g>
</svg>
