<svg width="64.000000" height="64.000000" viewBox="0 0 64 64" fill="none" xmlns="http://www.w3.org/2000/svg" xmlns:xlink="http://www.w3.org/1999/xlink">
	<desc>
			Created with Pixso.
	</desc>
	<defs>
		<clipPath id="clip52_18">
			<rect rx="0.000000" width="63.000000" height="63.000000" transform="translate(0.500000 0.500000)" fill="white" fill-opacity="0"/>
		</clipPath>
	</defs>
	<rect rx="0.000000" width="63.000000" height="63.000000" transform="translate(0.500000 0.500000)" fill="#FFFFFF" fill-opacity="0"/>
	<g clip-path="url(#clip52_18)">
		<path d="M11.8 54.4L7.31 4L56.68 4L52.18 54.39L31.97 60L11.8 54.4Z" fill="#1572B6" fill-opacity="1.000000" fill-rule="nonzero"/>
		<path d="M32 55.71L48.34 51.18L52.18 8.12L32 8.12L32 55.71Z" fill="#33A9DC" fill-opacity="1.000000" fill-rule="nonzero"/>
		<path d="M32 26.38L40.17 26.38L40.74 20.05L32 20.05L32 13.87L32.02 13.87L47.5 13.87L47.35 15.52L45.83 32.56L32 32.56L32 26.38Z" fill="#FFFFFF" fill-opacity="1.000000" fill-rule="nonzero"/>
		<path d="M32.03 42.43L32 42.44L25.12 40.58L24.68 35.65L21.34 35.65L18.48 35.65L19.34 45.36L32 48.87L32.03 48.86L32.03 42.43Z" fill="#EBEBEB" fill-opacity="1.000000" fill-rule="nonzero"/>
		<path d="M39.65 32.3L38.91 40.58L32.01 42.44L32.01 48.87L44.68 45.36L44.78 44.31L45.85 32.3L39.65 32.3Z" fill="#FFFFFF" fill-opacity="1.000000" fill-rule="nonzero"/>
		<path d="M32.02 13.87L32.02 17.7L32.02 20.03L32.02 20.05L17.11 20.05L17.09 20.05L16.96 18.66L16.68 15.52L16.53 13.87L32.02 13.87Z" fill="#EBEBEB" fill-opacity="1.000000" fill-rule="nonzero"/>
		<path d="M32 26.38L32 30.22L32 32.54L32 32.56L25.22 32.56L25.2 32.56L25.07 31.17L24.79 28.04L24.64 26.38L32 26.38Z" fill="#EBEBEB" fill-opacity="1.000000" fill-rule="nonzero"/>
	</g>
</svg>
