<svg width="64.000000" height="64.000000" viewBox="0 0 64 64" fill="none" xmlns="http://www.w3.org/2000/svg" xmlns:xlink="http://www.w3.org/1999/xlink">
	<desc>
			Created with Pixso.
	</desc>
	<defs>
		<clipPath id="clip52_47">
			<rect rx="0.000000" width="63.000000" height="63.000000" transform="translate(0.500000 0.500000)" fill="white" fill-opacity="0"/>
		</clipPath>
	</defs>
	<rect rx="0.000000" width="63.000000" height="63.000000" transform="translate(0.500000 0.500000)" fill="#FFFFFF" fill-opacity="0"/>
	<g clip-path="url(#clip52_47)">
		<path d="M48.24 6.45C56.79 11.74 62.5 21.2 62.5 32C62.5 48.56 49.06 62 32.5 62C28.88 62 25.42 61.36 22.21 60.18L21.87 60.06L22.43 59.88L23.14 59.64L23.5 59.52L23.85 59.41L24.54 59.17L25.22 58.93L25.89 58.69L26.54 58.44L26.86 58.32L27.5 58.08C28.17 57.81 28.82 57.55 29.44 57.28L29.91 57.08L30.48 56.82C30.73 56.71 30.98 56.6 31.22 56.48L31.59 56.31L32.12 56.05L32.38 55.92L32.64 55.79L33.15 55.53C37.42 53.29 40.32 50.86 41.86 48.19C45.12 42.54 42.27 36.5 34.09 30.35L33.43 29.85L33.02 29.54L32.63 29.23L32.25 28.92L31.88 28.62L31.7 28.47L31.52 28.32L31.18 28.02L30.92 27.8L30.68 27.58L30.36 27.29L30.06 27L29.76 26.71L29.62 26.56L29.48 26.42L29.21 26.14C25.98 22.7 25.25 19.76 26.72 17.22C27.47 15.92 28.76 14.65 30.6 13.41L30.83 13.26L31.18 13.04C31.34 12.94 31.5 12.84 31.67 12.74L31.92 12.59L32.31 12.36L32.71 12.14L33.02 11.97L33.33 11.81L33.77 11.58C34.09 11.42 34.43 11.25 34.78 11.09L35.13 10.93L35.61 10.71L35.86 10.6L36.36 10.38L36.61 10.28L37.13 10.06L37.39 9.95L37.93 9.74L38.2 9.63L38.75 9.42L39.32 9.21L39.61 9.11L40.19 8.9L40.79 8.69L41.4 8.48L41.71 8.38L42.33 8.17L42.97 7.97L43.62 7.77L44.29 7.57L44.96 7.36L45.82 7.11L46.71 6.87L47.79 6.57L48.24 6.45ZM32.5 2C36.14 2 39.64 2.65 42.87 3.84L43.22 3.97L43 4.03L41.93 4.36L41.58 4.47L40.89 4.7L40.21 4.92L39.55 5.15L38.9 5.38L38.26 5.61L37.94 5.72L37.17 6.01L36.41 6.31L35.82 6.54L35.53 6.66L34.96 6.9C29.13 9.39 25.3 12.18 23.47 15.34C20.28 20.87 23.18 26.83 31.36 32.98L32.02 33.48L32.43 33.79L32.82 34.1L33.01 34.25L33.38 34.56L33.66 34.79L33.92 35.01L34.27 35.31L34.44 35.46L34.77 35.76C34.95 35.92 35.12 36.08 35.29 36.24L35.54 36.49L35.89 36.85L36.23 37.2C39.45 40.66 40.14 43.67 38.61 46.32C37.62 48.03 35.73 49.72 32.94 51.36L32.69 51.5L32.27 51.74L31.85 51.97C31.61 52.1 31.36 52.23 31.11 52.36L30.73 52.56L30.26 52.79L29.77 53.02L29.28 53.25L29.03 53.36L28.52 53.59L27.99 53.82L27.45 54.05L27.18 54.16L26.62 54.38L26.34 54.5L26.05 54.61L25.47 54.83L24.88 55.06L24.28 55.28L23.66 55.5L23.03 55.72L22.71 55.83L22.06 56.05L21.73 56.16L21.06 56.38L20.39 56.59L19.52 56.86L18.63 57.13L17.91 57.34L16.9 57.63C8.26 52.36 2.5 42.85 2.5 32C2.5 15.43 15.93 2 32.5 2Z" fill="#0080FF" fill-opacity="1.000000" fill-rule="nonzero"/>
	</g>
</svg>
