<svg width="64.000000" height="64.000000" viewBox="0 0 64 64" fill="none" xmlns="http://www.w3.org/2000/svg" xmlns:xlink="http://www.w3.org/1999/xlink">
	<desc>
			Created with Pixso.
	</desc>
	<defs>
		<clipPath id="clip52_60">
			<rect rx="0.000000" width="63.000000" height="63.000000" transform="translate(0.500000 0.500000)" fill="white" fill-opacity="0"/>
		</clipPath>
	</defs>
	<rect rx="0.000000" width="63.000000" height="63.000000" transform="translate(0.500000 0.500000)" fill="#FFFFFF" fill-opacity="0"/>
	<g clip-path="url(#clip52_60)">
		<path d="M32 32C32 27.58 35.58 24 40 24C44.41 24 48 27.58 48 32C48 36.41 44.41 40 40 40C35.58 40 32 36.41 32 32Z" fill="#1ABCFE" fill-opacity="1.000000" fill-rule="evenodd"/>
		<path d="M16 48C16 43.58 19.58 40 24 40L32 40L32 48C32 52.41 28.41 56 24 56C19.58 56 16 52.41 16 48Z" fill="#0ACF83" fill-opacity="1.000000" fill-rule="evenodd"/>
		<path d="M32 8L32 24L40 24C44.41 24 48 20.41 48 16C48 11.58 44.41 8 40 8L32 8Z" fill="#FF7262" fill-opacity="1.000000" fill-rule="evenodd"/>
		<path d="M16 16C16 20.41 19.58 24 24 24L32 24L32 8L24 8C19.58 8 16 11.58 16 16Z" fill="#F24E1E" fill-opacity="1.000000" fill-rule="evenodd"/>
		<path d="M16 32C16 36.41 19.58 40 24 40L32 40L32 24L24 24C19.58 24 16 27.58 16 32Z" fill="#A259FF" fill-opacity="1.000000" fill-rule="evenodd"/>
	</g>
</svg>
