<svg width="60.000000" height="52.000000" viewBox="0 0 60 52" fill="none" xmlns="http://www.w3.org/2000/svg" xmlns:xlink="http://www.w3.org/1999/xlink">
	<desc>
			Created with Pixso.
	</desc>
	<defs/>
	<path id="Vector" d="M47.4 16.3C48.53 11.84 49.95 3.58 44.94 0.78C39.95 -2.02 33.45 3.33 30.02 6.54C26.6 3.36 19.93 -1.96 14.92 0.85C9.93 3.65 11.47 11.78 12.62 16.27C7.97 17.55 0 20.31 0 25.95C0 31.57 7.96 34.57 12.59 35.85C11.43 40.36 9.97 48.38 14.96 51.17C19.99 53.98 26.64 48.78 30.11 45.54C33.56 48.77 39.99 54 44.98 51.2C49.99 48.39 48.68 40.23 47.53 35.72C52.01 34.44 60 31.5 60 25.95C60 20.36 51.98 17.58 47.4 16.3ZM46.83 33.33C46.07 31 45.04 28.52 43.79 25.96C44.99 23.46 45.97 21.01 46.71 18.7C50.07 19.64 57.43 21.8 57.43 25.95C57.43 30.14 50.36 32.31 46.83 33.33ZM43.7 49.05C39.97 51.14 34.44 46.13 31.89 43.76C33.58 41.96 35.27 39.88 36.92 37.56C39.82 37.32 42.56 36.91 45.05 36.35C45.86 39.54 47.44 46.95 43.7 49.05ZM16.24 49.02C12.52 46.94 14.22 39.78 15.07 36.46C17.53 36.99 20.25 37.37 23.16 37.6C24.82 39.86 26.56 41.94 28.31 43.77C26.15 45.8 19.98 51.11 16.24 49.02ZM2.56 25.95C2.56 21.74 9.88 19.6 13.31 18.66C14.06 21.03 15.05 23.5 16.24 26.01C15.03 28.55 14.03 31.06 13.28 33.46C10 32.55 2.56 30.15 2.56 25.95ZM16.2 3C19.94 0.9 25.74 6.01 28.23 8.32C26.48 10.13 24.76 12.2 23.12 14.45C20.29 14.7 17.59 15.11 15.11 15.65C14.18 12.04 12.47 5.1 16.2 3ZM38.75 17.15C40.67 17.38 42.5 17.7 44.22 18.08C43.71 19.68 43.06 21.36 42.3 23.09C41.2 21.06 40.02 19.08 38.75 17.15ZM30.02 10.09C31.21 11.33 32.39 12.72 33.55 14.22C31.19 14.12 28.83 14.12 26.46 14.22C27.63 12.73 28.82 11.35 30.02 10.09ZM17.71 23.08C16.96 21.37 16.32 19.68 15.8 18.05C17.51 17.68 19.34 17.37 21.24 17.14C19.97 19.07 18.79 21.05 17.71 23.08ZM21.3 34.93C19.33 34.71 17.48 34.43 15.77 34.06C16.3 32.41 16.95 30.68 17.71 28.93C18.81 30.98 20 32.98 21.3 34.93ZM30.09 41.98C28.88 40.71 27.67 39.3 26.48 37.79C28.86 37.88 31.24 37.88 33.62 37.78C32.45 39.32 31.27 40.72 30.09 41.98ZM42.33 28.84C43.13 30.61 43.81 32.33 44.34 33.96C42.6 34.34 40.73 34.65 38.75 34.88C40.03 32.92 41.22 30.9 42.33 28.84ZM35.49 35.18C31.86 35.43 28.2 35.43 24.56 35.2C22.5 32.28 20.66 29.2 19.07 26.01C20.65 22.82 22.48 19.75 24.53 16.83C28.17 16.56 31.83 16.56 35.47 16.83C37.51 19.75 39.33 22.81 40.95 25.97C39.35 29.16 37.51 32.23 35.49 35.18ZM43.66 2.93C47.4 5.02 45.73 12.45 44.91 15.68C42.42 15.12 39.72 14.71 36.89 14.45C35.24 12.18 33.53 10.11 31.82 8.31C34.33 5.96 39.95 0.86 43.66 2.93Z" fill="#53C1DE" fill-opacity="1.000000" fill-rule="evenodd"/>
</svg>
