<svg width="64.000000" height="64.000000" viewBox="0 0 64 64" fill="none" xmlns="http://www.w3.org/2000/svg" xmlns:xlink="http://www.w3.org/1999/xlink">
	<desc>
			Created with Pixso.
	</desc>
	<defs>
		<clipPath id="clip37_4298">
			<rect id="web-search 1" rx="0.000000" width="39.000000" height="39.000000" transform="translate(12.500000 12.500000)" fill="white" fill-opacity="0"/>
		</clipPath>
		<clipPath id="clip36_4281">
			<rect id="image wrapper" rx="7.500000" width="63.000000" height="63.000000" transform="translate(0.500000 0.500000)" fill="white" fill-opacity="0"/>
		</clipPath>
	</defs>
	<rect id="image wrapper" rx="7.500000" width="63.000000" height="63.000000" transform="translate(0.500000 0.500000)" fill="#5CB0FF" fill-opacity="0.250000"/>
	<g clip-path="url(#clip36_4281)">
		<rect id="web-search 1" rx="0.000000" width="39.000000" height="39.000000" transform="translate(12.500000 12.500000)" fill="#FFFFFF" fill-opacity="0"/>
		<g clip-path="url(#clip37_4298)">
			<path id="Vector" d="M44 40.06C44 37.18 41.66 34.84 38.79 34.84C35.91 34.84 33.57 37.18 33.57 40.06C33.57 42.93 35.91 45.27 38.79 45.27C41.66 45.27 44 42.93 44 40.06Z" fill="#5CB0FF" fill-opacity="1.000000" fill-rule="nonzero"/>
			<path id="Vector" d="M29.84 44.53L29.84 30.36L37.85 30.36C37.85 30.51 37.86 30.65 37.86 30.8C37.86 31.21 38.2 31.55 38.61 31.55C39.02 31.55 39.36 31.21 39.36 30.8C39.36 30.65 39.34 30.51 39.34 30.36L44 30.36L45.06 30.36L45.49 30.36C45.49 21.73 38.47 14.71 29.84 14.71L28.35 14.71L28.35 14.78C20.41 15.54 14.18 22.24 14.18 30.36C14.18 39 21.21 46.02 29.84 46.02C30.25 46.02 30.58 45.69 30.58 45.27C30.58 44.86 30.25 44.53 29.84 44.53ZM28.35 44.28C24.63 43.08 21.81 37.5 21.81 30.8C21.81 30.65 21.82 30.51 21.83 30.36L28.35 30.36L28.35 44.28ZM21.9 28.87C22.39 23.06 25 18.41 28.35 17.32L28.35 28.87L21.9 28.87ZM29.84 28.87L29.84 17.08C33.88 17.08 37.22 22.22 37.78 28.87L29.84 28.87ZM43.92 28.87L39.27 28.87C38.82 23.29 36.48 18.64 33.31 16.65C38.98 18.08 43.3 22.93 43.92 28.87ZM26.37 16.65C23.2 18.64 20.85 23.29 20.41 28.87L15.76 28.87C16.38 22.93 20.7 18.08 26.37 16.65ZM15.68 30.36L20.34 30.36C20.33 30.51 20.32 30.65 20.32 30.8C20.32 36.12 22.04 40.8 24.63 43.52C19.39 41.44 15.68 36.33 15.68 30.36Z" fill="#1C71DA" fill-opacity="1.000000" fill-rule="nonzero"/>
			<path id="Vector" d="M47.69 47.9L44.02 44.24C44.94 43.09 45.49 41.64 45.49 40.06C45.49 36.36 42.48 33.35 38.79 33.35C35.09 33.35 32.08 36.36 32.08 40.06C32.08 43.76 35.09 46.76 38.79 46.76C40.37 46.76 41.82 46.21 42.97 45.29L46.63 48.96L47.69 47.9ZM33.57 40.06C33.57 37.18 35.91 34.84 38.79 34.84C41.66 34.84 44 37.18 44 40.06C44 42.93 41.66 45.27 38.79 45.27C35.91 45.27 33.57 42.93 33.57 40.06Z" fill="#1C71DA" fill-opacity="1.000000" fill-rule="nonzero"/>
			<path id="Vector" d="M12.74 17.66C12.55 17.66 12.36 17.59 12.21 17.44C11.92 17.15 11.92 16.68 12.21 16.39L14.85 13.75C15.14 13.46 15.61 13.46 15.9 13.75C16.19 14.04 16.19 14.51 15.9 14.8L13.27 17.44C13.12 17.59 12.93 17.66 12.74 17.66Z" fill="#FF5D5D" fill-opacity="1.000000" fill-rule="nonzero"/>
			<path id="Vector" d="M15.38 17.66C15.19 17.66 14.99 17.59 14.85 17.44L12.21 14.8C11.92 14.51 11.92 14.04 12.21 13.75C12.5 13.46 12.98 13.46 13.27 13.75L15.9 16.39C16.19 16.68 16.19 17.15 15.9 17.44C15.76 17.59 15.57 17.66 15.38 17.66Z" fill="#FF5D5D" fill-opacity="1.000000" fill-rule="nonzero"/>
			<path id="Vector" d="M14.6 50.46C13.17 50.46 12 49.29 12 47.85C12 46.41 13.17 45.24 14.6 45.24C16.04 45.24 17.21 46.41 17.21 47.85C17.21 49.29 16.04 50.46 14.6 50.46ZM14.6 46.73C13.99 46.73 13.49 47.23 13.49 47.85C13.49 48.47 13.99 48.97 14.6 48.97C15.22 48.97 15.72 48.47 15.72 47.85C15.72 47.23 15.22 46.73 14.6 46.73Z" fill="#00D40B" fill-opacity="1.000000" fill-rule="nonzero"/>
			<path id="Vector" d="M49.14 24.11C48.94 24.11 48.75 24.03 48.61 23.89L46.51 21.78C46.37 21.64 46.29 21.45 46.29 21.26C46.29 21.06 46.37 20.87 46.51 20.73L48.61 18.62C48.91 18.33 49.38 18.33 49.67 18.62L51.78 20.73C52.07 21.02 52.07 21.49 51.78 21.78L49.67 23.89C49.53 24.03 49.34 24.11 49.14 24.11ZM48.09 21.26L49.14 22.31L50.2 21.26L49.14 20.2L48.09 21.26Z" fill="#FFC504" fill-opacity="1.000000" fill-rule="nonzero"/>
		</g>
	</g>
</svg>
