<svg width="64.000000" height="64.000000" viewBox="0 0 64 64" fill="none" xmlns="http://www.w3.org/2000/svg" xmlns:xlink="http://www.w3.org/1999/xlink">
	<desc>
			Created with Pixso.
	</desc>
	<defs>
		<clipPath id="clip38_4409">
			<rect id="diamond 1" rx="0.000000" width="39.000000" height="39.000000" transform="translate(12.500000 12.500000)" fill="white" fill-opacity="0"/>
		</clipPath>
		<clipPath id="clip38_4340">
			<rect id="image wrapper" rx="7.500000" width="63.000000" height="63.000000" transform="translate(0.500000 0.500000)" fill="white" fill-opacity="0"/>
		</clipPath>
	</defs>
	<rect id="image wrapper" rx="7.500000" width="63.000000" height="63.000000" transform="translate(0.500000 0.500000)" fill="#A5EAD6" fill-opacity="0.250000"/>
	<g clip-path="url(#clip38_4340)">
		<rect id="diamond 1" rx="0.000000" width="39.000000" height="39.000000" transform="translate(12.500000 12.500000)" fill="#FFFFFF" fill-opacity="0"/>
		<g clip-path="url(#clip38_4409)">
			<path id="Vector" d="M32 47.15L12 26.99L19.63 16.84L44.36 16.84L52 26.99L32 47.15Z" fill="#82DCC7" fill-opacity="1.000000" fill-rule="nonzero"/>
			<path id="Vector" d="M52 26.99L32 47.15L42.39 26.99L52 26.99Z" fill="#82DCC7" fill-opacity="1.000000" fill-rule="nonzero"/>
			<path id="Vector" d="M32 26.99L32 47.15L42.39 26.99L32 26.99Z" fill="#95E5D0" fill-opacity="1.000000" fill-rule="nonzero"/>
			<path id="Vector" d="M19.63 16.84L21.6 26.99L12 26.99L19.63 16.84Z" fill="#95E5D0" fill-opacity="1.000000" fill-rule="nonzero"/>
			<path id="Vector" d="M21.6 26.99L32 26.99L32 16.84L21.6 26.99Z" fill="#A5EAD6" fill-opacity="1.000000" fill-rule="nonzero"/>
			<path id="Vector" d="M44.36 16.84L52 26.99L42.39 26.99L44.36 16.84Z" fill="#74CBB4" fill-opacity="1.000000" fill-rule="nonzero"/>
			<path id="Vector" d="M21.6 26.99L32 47.15L32 26.99L21.6 26.99Z" fill="#74CBB4" fill-opacity="1.000000" fill-rule="nonzero"/>
			<path id="Vector" d="M31.99 16.84L21.6 26.99L19.63 16.84L31.99 16.84Z" fill="#74CBB4" fill-opacity="1.000000" fill-rule="nonzero"/>
			<path id="Vector" d="M32 16.84L42.39 26.99L44.36 16.84L32 16.84Z" fill="#A5EAD6" fill-opacity="1.000000" fill-rule="nonzero"/>
		</g>
	</g>
</svg>
