<svg width="64.000000" height="64.000000" viewBox="0 0 64 64" fill="none" xmlns="http://www.w3.org/2000/svg" xmlns:xlink="http://www.w3.org/1999/xlink">
	<desc>
			Created with Pixso.
	</desc>
	<defs>
		<clipPath id="clip38_4307">
			<rect id="pen-tool-graphic-design 1" rx="0.000000" width="39.000000" height="39.000000" transform="translate(12.500000 12.500000)" fill="white" fill-opacity="0"/>
		</clipPath>
		<clipPath id="clip37_4294">
			<rect id="image wrapper" rx="7.500000" width="63.000000" height="63.000000" transform="translate(0.500000 0.500000)" fill="white" fill-opacity="0"/>
		</clipPath>
	</defs>
	<rect id="image wrapper" rx="7.500000" width="63.000000" height="63.000000" transform="translate(0.500000 0.500000)" fill="#FF507D" fill-opacity="0.250000"/>
	<g clip-path="url(#clip37_4294)">
		<rect id="pen-tool-graphic-design 1" rx="0.000000" width="39.000000" height="39.000000" transform="translate(12.500000 12.500000)" fill="#FFFFFF" fill-opacity="0"/>
		<g clip-path="url(#clip38_4307)">
			<path id="Vector" d="M14.51 33.22C15.23 24.2 22.79 17.08 32 17.08C41.2 17.08 48.76 24.2 49.48 33.22L50.88 33.22C50.16 23.43 41.97 15.68 32 15.68C22.02 15.68 13.83 23.43 13.11 33.22L14.51 33.22Z" fill="#FF507D" fill-opacity="1.000000" fill-rule="nonzero"/>
			<path id="Vector" d="M37.09 16.38L26.9 16.38C25.18 16.86 23.57 17.57 22.09 18.49L25.13 18.49C27.24 17.59 29.56 17.08 32 17.08C34.43 17.08 36.75 17.59 38.86 18.49L41.9 18.49C40.42 17.57 38.81 16.86 37.09 16.38Z" fill="#D23C69" fill-opacity="1.000000" fill-rule="nonzero"/>
			<path id="Vector" d="M14.8 36.38L12.7 36.38C12.31 36.38 12 36.07 12 35.68L12 33.57C12 33.19 12.31 32.87 12.7 32.87L14.8 32.87C15.19 32.87 15.5 33.19 15.5 33.57L15.5 35.68C15.5 36.07 15.19 36.38 14.8 36.38ZM13.4 34.98L14.1 34.98L14.1 34.28L13.4 34.28L13.4 34.98Z" fill="#707487" fill-opacity="1.000000" fill-rule="nonzero"/>
			<path id="Vector" d="M50.59 34.28L50.59 34.98L49.89 34.98L49.89 34.28L50.59 34.28ZM51.29 32.87L49.19 32.87C48.8 32.87 48.49 33.19 48.49 33.57L48.49 35.68C48.49 36.07 48.8 36.38 49.19 36.38L51.29 36.38C51.68 36.38 52 36.07 52 35.68L52 33.57C52 33.19 51.68 32.87 51.29 32.87Z" fill="#707487" fill-opacity="1.000000" fill-rule="nonzero"/>
			<path id="Vector" d="M13.75 15.68L50.24 15.68L50.24 17.08L13.75 17.08L13.75 15.68Z" fill="#464655" fill-opacity="1.000000" fill-rule="evenodd"/>
			<path id="Vector" d="M33.05 18.14L30.94 18.14C30.55 18.14 30.24 17.82 30.24 17.43L30.24 15.33C30.24 14.94 30.55 14.63 30.94 14.63L33.05 14.63C33.44 14.63 33.75 14.94 33.75 15.33L33.75 17.43C33.75 17.82 33.43 18.14 33.05 18.14Z" fill="#5B5D6E" fill-opacity="1.000000" fill-rule="nonzero"/>
			<path id="Vector" d="M15.5 16.38C15.5 17.35 14.72 18.14 13.75 18.14C12.78 18.14 12 17.35 12 16.38C12 15.41 12.78 14.63 13.75 14.63C14.72 14.63 15.5 15.41 15.5 16.38Z" fill="#5B5D6E" fill-opacity="1.000000" fill-rule="evenodd"/>
			<path id="Vector" d="M52 16.38C52 17.35 51.21 18.14 50.24 18.14C49.27 18.14 48.49 17.35 48.49 16.38C48.49 15.41 49.27 14.63 50.24 14.63C51.21 14.63 52 15.41 52 16.38Z" fill="#5B5D6E" fill-opacity="1.000000" fill-rule="evenodd"/>
			<path id="Vector" d="M33.57 19.89L33.4 19.89C33.01 19.89 32.7 20.2 32.7 20.59L32.7 34.62C32.7 34.89 32.85 35.13 33.08 35.24C34.03 35.71 34.63 36.75 34.4 37.92C34.23 38.84 33.5 39.61 32.58 39.82C30.97 40.19 29.54 38.98 29.54 37.43C29.54 36.47 30.1 35.64 30.91 35.24C31.15 35.13 31.29 34.88 31.29 34.62L31.29 20.59C31.29 20.2 30.98 19.89 30.59 19.89L30.42 19.89C30.11 19.89 29.83 20.1 29.75 20.4L25.14 36.86C25.04 37.22 25.08 37.61 25.27 37.93C25.92 39.07 27.55 42.04 29.19 45.85L34.8 45.85C36.44 42.04 38.07 39.07 38.72 37.93C38.91 37.61 38.95 37.22 38.85 36.86L34.24 20.4C34.16 20.1 33.88 19.89 33.57 19.89Z" fill="#C7CFE2" fill-opacity="1.000000" fill-rule="nonzero"/>
			<path id="Vector" d="M32.7 20.59L32.7 34.62C32.7 34.89 32.85 35.13 33.08 35.24C33.78 35.59 34.3 36.26 34.42 37.06L33.4 19.89C33.01 19.89 32.7 20.2 32.7 20.59Z" fill="#AFB9D2" fill-opacity="1.000000" fill-rule="nonzero"/>
			<path id="Vector" d="M35.5 49.36L28.49 49.36C28.1 49.36 27.78 49.05 27.78 48.66L27.78 46.56C27.78 46.17 28.1 45.85 28.49 45.85L35.5 45.85C35.89 45.85 36.21 46.17 36.21 46.56L36.21 48.66C36.21 49.05 35.89 49.36 35.5 49.36Z" fill="#FF507D" fill-opacity="1.000000" fill-rule="nonzero"/>
			<path id="Vector" d="M30.59 48.66L30.59 46.56C30.59 46.17 30.91 45.85 31.29 45.85L28.49 45.85C28.1 45.85 27.78 46.17 27.78 46.56L27.78 48.66C27.78 49.05 28.1 49.36 28.49 49.36L31.29 49.36C30.91 49.36 30.59 49.05 30.59 48.66Z" fill="#D23C69" fill-opacity="1.000000" fill-rule="nonzero"/>
			<path id="Vector" d="M30.75 43.96C30.11 41.89 29.22 39.44 28.77 38.21C28.58 37.69 28.52 37.14 28.59 36.59L30.59 19.89L30.42 19.89C30.11 19.89 29.83 20.1 29.75 20.4L25.14 36.86C25.04 37.22 25.08 37.61 25.27 37.93C25.92 39.07 27.55 42.04 29.19 45.85L34.8 45.85C35.01 45.37 35.22 44.9 35.42 44.45L31.42 44.45C31.11 44.45 30.84 44.25 30.75 43.96Z" fill="#AFB9D2" fill-opacity="1.000000" fill-rule="nonzero"/>
		</g>
	</g>
</svg>
