<svg width="64.000000" height="64.000000" viewBox="0 0 64 64" fill="none" xmlns="http://www.w3.org/2000/svg" xmlns:xlink="http://www.w3.org/1999/xlink">
	<desc>
			Created with Pixso.
	</desc>
	<defs>
		<clipPath id="clip38_4404">
			<rect id="time 1" rx="0.000000" width="39.000000" height="39.000000" transform="translate(12.500000 12.500000)" fill="white" fill-opacity="0"/>
		</clipPath>
		<clipPath id="clip38_4355">
			<rect id="image wrapper" rx="7.500000" width="63.000000" height="63.000000" transform="translate(0.500000 0.500000)" fill="white" fill-opacity="0"/>
		</clipPath>
	</defs>
	<rect id="image wrapper" rx="7.500000" width="63.000000" height="63.000000" transform="translate(0.500000 0.500000)" fill="#00EE7A" fill-opacity="0.250000"/>
	<g clip-path="url(#clip38_4355)">
		<rect id="time 1" rx="0.000000" width="39.000000" height="39.000000" transform="translate(12.500000 12.500000)" fill="#FFFFFF" fill-opacity="0"/>
		<g clip-path="url(#clip38_4404)">
			<path id="Vector" d="M35.34 30.77L27.26 25.04C26.39 24.43 25.19 24.63 24.57 25.5L24.49 25.61C23.88 26.48 24.08 27.68 24.95 28.3L33.03 34.03C33.9 34.65 35.1 34.44 35.72 33.57L35.8 33.46C36.41 32.59 36.21 31.39 35.34 30.77Z" fill="#F39A2B" fill-opacity="1.000000" fill-rule="nonzero"/>
			<path id="Vector" d="M34.85 28.53L34.74 28.45C33.87 27.84 32.67 28.04 32.05 28.91L22.89 41.82C22.28 42.69 22.48 43.89 23.35 44.5L23.46 44.58C24.33 45.2 25.53 45 26.15 44.13L35.31 31.22C35.92 30.35 35.72 29.15 34.85 28.53Z" fill="#E5594F" fill-opacity="1.000000" fill-rule="nonzero"/>
			<path id="Vector" d="M46.83 32.51C46.81 34.47 46.51 36.09 45.75 38.08C45.23 39.43 44.02 41.29 43 42.42C40.54 45.12 37.04 46.84 33.59 47.17C29.65 47.54 26.18 46.48 22.99 44.1C23.29 44.32 22.7 43.85 22.72 43.86C22.54 43.71 22.37 43.56 22.2 43.4C21.85 43.09 21.53 42.75 21.21 42.42C20.5 41.66 20.19 41.22 19.59 40.27C18.53 38.58 18 37.14 17.6 35.1C17.44 34.3 17.39 33.54 17.38 32.51C17.36 29.64 12.92 29.64 12.94 32.51C13 41.2 18.96 48.92 27.39 51.09C35.85 53.27 44.93 49.17 49.03 41.5C50.51 38.74 51.25 35.63 51.27 32.51C51.29 29.64 46.85 29.64 46.83 32.51Z" fill="#1B92D1" fill-opacity="1.000000" fill-rule="nonzero"/>
			<path id="Vector" d="M17.38 31.58C17.4 29.63 17.7 28 18.46 26.02C18.97 24.66 20.18 22.81 21.21 21.68C23.67 18.97 27.17 17.25 30.62 16.93C34.55 16.55 38.02 17.61 41.21 19.99C40.91 19.77 41.51 20.24 41.49 20.23C41.67 20.38 41.84 20.53 42.01 20.69C42.35 21 42.68 21.34 43 21.68C43.71 22.44 44.02 22.87 44.61 23.82C45.67 25.51 46.21 26.96 46.61 29C46.76 29.79 46.82 30.55 46.83 31.58C46.85 34.45 51.29 34.45 51.27 31.58C51.21 22.89 45.25 15.17 36.81 13C28.36 10.83 19.27 14.93 15.18 22.59C13.7 25.35 12.96 28.46 12.94 31.58C12.92 34.45 17.36 34.45 17.38 31.58Z" fill="#00EE7A" fill-opacity="1.000000" fill-rule="nonzero"/>
		</g>
	</g>
</svg>
